<svg width="96" height="96" xmlns="http://www.w3.org/2000/svg" xmlns:xlink="http://www.w3.org/1999/xlink" xml:space="preserve" overflow="hidden"><defs><linearGradient x1="593.328" y1="401.174" x2="656.672" y2="337.83" gradientUnits="userSpaceOnUse" spreadMethod="pad" id="fill0"><stop offset="0" stop-color="#FF9F00"/><stop offset="0.05089" stop-color="#FE9900"/><stop offset="0.466323" stop-color="#FD7204"/><stop offset="0.797112" stop-color="#FD5907"/><stop offset="1" stop-color="#FD5108"/></linearGradient></defs><g transform="translate(-577 -312)"><path d="M611.5 337.5C611.5 344.944 617.556 351 625 351 632.444 351 638.5 344.944 638.5 337.5 638.5 330.056 632.444 324 625 324 617.556 324 611.5 330.056 611.5 337.5ZM635.5 337.5C635.5 343.289 630.789 348 625 348 619.211 348 614.5 343.289 614.5 337.5 614.5 331.711 619.211 327 625 327 630.789 327 635.5 331.711 635.5 337.5ZM610 346.5C610 340.711 605.289 336 599.5 336 593.711 336 589 340.711 589 346.5 589 352.289 593.711 357 599.5 357 605.289 357 610 352.289 610 346.5ZM599.5 354C595.365 354 592 350.637 592 346.5 592 342.363 595.365 339 599.5 339 603.635 339 607 342.363 607 346.5 607 350.637 603.635 354 599.5 354ZM640 346.5C640 352.289 644.711 357 650.5 357 656.289 357 661 352.289 661 346.5 661 340.711 656.289 336 650.5 336 644.711 336 640 340.711 640 346.5ZM658 346.5C658 350.637 654.635 354 650.5 354 646.365 354 643 350.637 643 346.5 643 342.363 646.365 339 650.5 339 654.635 339 658 342.363 658 346.5ZM647.72 373.465 635.67 396 634.073 396 634.073 366.261 637.073 366.261 637.073 387.015 644.28 373.535 634.529 356.959 615.471 356.959 605.72 373.535 612.927 387.015 612.927 366.261 615.927 366.261 615.927 396 614.33 396 602.28 373.465 613.754 353.959 636.246 353.959 647.72 373.465ZM590.583 360 599.5 360 599.5 363 592.3 363 583.398 378.135 589.772 390.056 589.772 371.437 592.772 371.437 592.772 399 591.154 399 579.959 378.064 590.583 360ZM670.041 378.064 658.846 399 657.228 399 657.228 371.437 660.228 371.437 660.228 390.056 666.602 378.135 657.7 363 650.5 363 650.5 360 659.417 360 670.041 378.064Z" fill="url(#fill0)"/></g></svg>