<svg width="96" height="96" xmlns="http://www.w3.org/2000/svg" xmlns:xlink="http://www.w3.org/1999/xlink" xml:space="preserve" overflow="hidden"><defs><linearGradient x1="951.044" y1="398.061" x2="1016.46" y2="332.644" gradientUnits="userSpaceOnUse" spreadMethod="pad" id="fill0"><stop offset="0" stop-color="#FF9F00"/><stop offset="0.05089" stop-color="#FE9900"/><stop offset="0.466323" stop-color="#FD7204"/><stop offset="0.797112" stop-color="#FD5907"/><stop offset="1" stop-color="#FD5108"/></linearGradient></defs><g transform="translate(-936 -313)"><path d="M976.346 391.723 952.636 391.723 964.684 368.439 976.346 391.723ZM981.203 394.723 947.706 394.723 964.729 361.827 981.203 394.723ZM952.636 391.723 976.346 391.723 964.684 368.439 952.636 391.723ZM976.346 391.723 964.684 368.439 952.636 391.723 976.346 391.723ZM961.577 358.646 963.087 355.846C956.728 355.153 951.761 349.755 951.761 343.214 951.761 336.205 957.463 330.503 964.472 330.503 971.481 330.503 977.183 336.205 977.183 343.214 977.183 349.927 971.95 355.426 965.351 355.881L965.351 358.881C973.604 358.421 980.183 351.58 980.183 343.214 980.183 334.551 973.135 327.503 964.472 327.503 955.809 327.503 948.761 334.551 948.761 343.214 948.761 350.887 954.294 357.282 961.577 358.646ZM1009.36 330.277 994.423 330.277 986.954 343.214 994.423 356.152 1009.36 356.152 1016.83 343.214 1009.36 330.277ZM1020.29 343.214 1011.09 359.152 992.691 359.152 983.49 343.214 992.691 327.277 1011.09 327.277 1020.29 343.214ZM985.775 394.723 1007.64 394.723 1010.07 391.723 988.775 391.723 988.775 365.49 1015.01 365.49 1015 394.723 1018.01 394.723 1018.01 362.49 985.775 362.49 985.775 394.723Z" fill="url(#fill0)"/></g></svg>