<svg width="96" height="96" xmlns="http://www.w3.org/2000/svg" xmlns:xlink="http://www.w3.org/1999/xlink" xml:space="preserve" overflow="hidden"><defs><linearGradient x1="63.68" y1="394.095" x2="130.835" y2="326.94" gradientUnits="userSpaceOnUse" spreadMethod="pad" id="fill0"><stop offset="0" stop-color="#FF9F00"/><stop offset="0.05089" stop-color="#FE9900"/><stop offset="0.466323" stop-color="#FD7204"/><stop offset="0.797112" stop-color="#FD5907"/><stop offset="1" stop-color="#FD5108"/></linearGradient></defs><g transform="translate(-44 -312)"><path d="M49.6399 375.315 47.9001 378.315 66.2 378.315 67.0699 376.815 67.94 375.315 49.6399 375.315ZM53.87 366.885 52.9999 368.385 52.13 369.885 70.49 369.885 71.3599 368.385 72.23 366.885 53.87 366.885ZM49.6699 358.485 48.8 359.985 47.9299 361.485 65.3599 361.485 66.23 359.985 67.0699 358.485 49.6699 358.485ZM64.19 384.795 64.19 382.815 61.19 382.815 61.19 387.795 134.36 387.795 136.1 384.795 64.19 384.795ZM61.19 332.205 61.19 353.985 64.19 353.985 64.19 339.225 79.8199 365.805 117.47 365.805 133.1 339.195 133.1 380.295 136.1 380.295 136.1 332.205 61.19 332.205ZM115.76 362.805 81.53 362.805 65.33 335.205 131.96 335.205 115.76 362.805Z" fill="url(#fill0)"/></g></svg>