<svg width="72" height="72" viewBox="0 0 72 72" xmlns="http://www.w3.org/2000/svg" xmlns:xlink="http://www.w3.org/1999/xlink" id="Gradient" overflow="hidden"><defs><linearGradient x1="13.3448" y1="54.8078" x2="58.4955" y2="9.65717" gradientUnits="userSpaceOnUse" id="Gradient-2"><stop offset="0" stop-color="#FF9F00"/><stop offset="0.05089" stop-color="#FE9900"/><stop offset="0.466323" stop-color="#FD7204"/><stop offset="0.797112" stop-color="#FD5907"/><stop offset="1" stop-color="#FD5108"/></linearGradient></defs><path d="M29.6396 36.9312 33.2383 40.2095 47.252 28.0493 48.7266 29.7485 33.2012 43.2212 28.124 38.5933 29.6396 36.9312ZM61.2461 46.8911C61.2461 48.5952 60.4072 50.1899 59.0029 51.1558L36 66.9683 12.9971 51.1558C11.5928 50.1899 10.7539 48.5952 10.7539 46.8911L10.7539 15.8091 36 4.7583 60.6436 15.5453 62.928 14.0897 36 2.30127 8.50391 14.3384 8.50391 46.8911C8.50391 49.3364 9.70703 51.6235 11.7217 53.0093L36 69.6987 60.2783 53.0093C62.293 51.6235 63.4961 49.3364 63.4961 46.8911L63.4961 21.887 61.2461 23.3206 61.2461 46.8911ZM13.6172 17.9907 13.6172 35.1377 15.8672 33.704 15.8672 19.5044 35.8525 11.3823 55.8389 19.5044 55.8389 44.0688C55.8389 45.4517 55.1582 46.7466 54.0176 47.5308L35.8525 60.0171 17.6885 47.5308C16.5479 46.7466 15.8672 45.4517 15.8672 44.0688L15.8672 41.8633 13.6172 43.2969 13.6172 44.0688C13.6172 46.1929 14.6621 48.1802 16.4131 49.3843L35.8525 62.7476 55.293 49.3843C57.0439 48.1802 58.0889 46.1929 58.0889 44.0688L58.0889 17.9907 35.8525 8.95459 13.6172 17.9907Z" fill="url(#Gradient-2)"/></svg>