<svg width="72" height="72" viewBox="0 0 72 72" xmlns="http://www.w3.org/2000/svg" xmlns:xlink="http://www.w3.org/1999/xlink" id="Gradient" overflow="hidden"><defs><linearGradient x1="15.165" y1="66.1613" x2="59.6812" y2="21.6451" gradientUnits="userSpaceOnUse" id="linear-gradient"><stop offset="0" stop-color="#FF9F00"/><stop offset="0.05089" stop-color="#FE9900"/><stop offset="0.466323" stop-color="#FD7204"/><stop offset="0.797112" stop-color="#FD5907"/><stop offset="1" stop-color="#FD5108"/></linearGradient></defs><path d="M65.9587 41.1976 65.9587 32.1076 64.0911 32.1076 62.5837 24.705 58.7812 25.4926 55.2263 17.1901 48.6787 19.9801 43.7287 12.8476 35.7187 18.4276 30.1838 13.1401 12.0712 32.1076 7.45869 32.1076 7.45869 36.945 4.62366 39.915 7.45869 42.6151 7.45869 58.455 13.4887 58.455 13.8037 60.0075 16.4812 59.4676 16.5037 59.5126 16.7962 59.4001 21.3862 58.455 64.6313 58.455 65.9362 56.205 9.70869 56.205 9.70869 34.3576 63.7087 34.3576 63.7087 52.83 65.9587 52.83 65.9587 49.32 67.5562 49.0051 65.9587 41.1976ZM15.1987 32.1076 30.2512 16.3126 33.8288 19.7326 15.9638 32.1076 15.1987 32.1076ZM19.9238 32.1076 43.1662 15.975 46.5637 20.9025 20.3737 32.1076 19.9238 32.1076ZM26.0888 32.1076 54.0562 20.1376 56.5312 25.9426 26.4487 32.1076 26.0888 32.1076ZM37.6536 32.1076 60.8288 27.36 61.7962 32.1076 37.6536 32.1076ZM34.8311 50.1385C35.2573 50.5911 35.7847 50.879 36.4175 51.002L36.4175 46.6998C36.3472 46.6712 36.2549 46.6405 36.1384 46.6075 36.022 46.5723 35.8945 46.5416 35.7583 46.5152 35.2507 46.3768 34.7498 46.2164 34.2554 46.0296 33.761 45.8451 33.3193 45.599 32.926 45.2891 32.5349 44.9815 32.2229 44.597 31.99 44.1356 31.7571 43.6764 31.6406 43.1051 31.6406 42.4173 31.6406 41.7186 31.7747 41.099 32.0427 40.565 32.3086 40.0289 32.6624 39.5807 33.1018 39.2159 33.5413 38.8534 34.0488 38.5721 34.6245 38.3722 35.2024 38.1744 35.7979 38.0536 36.4175 38.0118L36.4175 36.4276 37.6304 36.4276 37.6304 38.0118C38.2478 38.0799 38.8279 38.214 39.3706 38.4139 39.9133 38.6117 40.3901 38.8863 40.801 39.2379 41.2141 39.5872 41.5503 40.0223 41.8096 40.5431 42.071 41.066 42.2227 41.6834 42.2622 42.3975L39.3398 42.3975C39.3267 41.8482 39.1553 41.3824 38.8257 40.9979 38.4961 40.6134 38.0984 40.42 37.6304 40.42L37.6304 44.0653C37.7952 44.1048 37.9644 44.1466 38.1357 44.1883 38.3071 44.2301 38.4895 44.2784 38.6807 44.3311 39.6958 44.6058 40.478 44.9464 41.0273 45.3507 41.5767 45.7572 41.981 46.179 42.2424 46.6163 42.5039 47.0557 42.6577 47.4952 42.7061 47.9347 42.7544 48.3741 42.7786 48.7652 42.7786 49.108 42.7786 49.4112 42.7017 49.7913 42.5522 50.2506 42.4006 50.7098 42.1304 51.1602 41.7393 51.5997 41.3481 52.0391 40.823 52.4303 40.1638 52.773 39.5046 53.1158 38.6609 53.3223 37.6304 53.3905L37.6304 55.1395 36.4175 55.1395 36.4175 53.3905C34.8794 53.2806 33.6775 52.806 32.814 51.9688 31.9482 51.1339 31.4473 49.9034 31.311 48.284L34.2136 48.284C34.2004 49.0662 34.4048 49.6837 34.8311 50.1385ZM35.7363 40.5233C35.5166 40.5914 35.3188 40.6991 35.1409 40.8419 34.9607 40.9869 34.8201 41.1649 34.719 41.378 34.6157 41.5911 34.563 41.8416 34.563 42.1295 34.563 42.5821 34.708 42.9315 34.9958 43.1798 35.2837 43.4259 35.7583 43.6258 36.4175 43.7752L36.4175 40.42C36.1824 40.42 35.9561 40.4552 35.7363 40.5233ZM38.4038 50.8263C38.6719 50.7384 38.9114 50.6109 39.1245 50.4461 39.3354 50.2813 39.5112 50.0792 39.6497 49.8397 39.7859 49.6002 39.854 49.3145 39.854 48.9849 39.854 48.4488 39.687 48.0489 39.3508 47.7808 39.0146 47.5128 38.4412 47.2689 37.6304 47.0492L37.6304 51.002C37.8787 50.9757 38.1357 50.9163 38.4038 50.8263Z" fill="url(#linear-gradient)"/></svg>