<svg width="96" height="96" xmlns="http://www.w3.org/2000/svg" xmlns:xlink="http://www.w3.org/1999/xlink" xml:space="preserve" overflow="hidden"><defs><linearGradient x1="760.723" y1="565.177" x2="823.947" y2="501.953" gradientUnits="userSpaceOnUse" spreadMethod="pad" id="fill0"><stop offset="0" stop-color="#FF9F00"/><stop offset="0.05089" stop-color="#FE9900"/><stop offset="0.466323" stop-color="#FD7204"/><stop offset="0.797112" stop-color="#FD5907"/><stop offset="1" stop-color="#FD5108"/></linearGradient></defs><g transform="translate(-755 -486)"><path d="M816.035 522.54 813.905 524.64C816.215 526.95 817.475 529.98 817.475 533.22 817.475 536.46 816.215 539.49 813.905 541.8L816.035 543.9C818.885 541.05 820.475 537.27 820.475 533.22 820.475 529.17 818.885 525.39 816.035 522.54ZM827.765 510.81 825.635 512.94C831.035 518.34 834.035 525.57 834.035 533.22 834.035 540.87 831.035 548.1 825.635 553.5L827.765 555.63C833.735 549.63 837.035 541.68 837.035 533.22 837.035 524.76 833.735 516.81 827.765 510.81ZM821.885 516.66 819.785 518.79C823.625 522.63 825.755 527.76 825.755 533.22 825.755 538.68 823.625 543.81 819.785 547.65L821.885 549.78C826.325 545.34 828.755 539.49 828.755 533.22 828.755 526.98 826.325 521.1 821.885 516.66ZM788.135 562.74 788.135 565.74 798.905 565.74 798.905 562.74 788.135 562.74ZM816.575 518.16 816.575 494.58 768.965 494.58 768.965 573.42 814.835 573.42 816.545 570.42 771.965 570.42 771.965 558.09 813.575 558.09 813.575 565.92 816.575 565.92 816.575 548.28 813.575 548.28 813.575 555.09 776.135 555.09 802.655 509.19 813.575 509.19 813.575 518.16 816.575 518.16ZM771.965 509.19 785.015 509.19 771.965 531.75 771.965 509.19ZM772.685 555.09 771.965 555.09 771.965 537.78 788.495 509.19 799.205 509.19 772.685 555.09ZM771.965 506.19 771.965 497.58 813.575 497.58 813.575 506.19 771.965 506.19Z" fill="url(#fill0)"/></g></svg>