<svg width="96" height="96" xmlns="http://www.w3.org/2000/svg" xmlns:xlink="http://www.w3.org/1999/xlink" xml:space="preserve" overflow="hidden"><defs><linearGradient x1="413.197" y1="230.883" x2="475.028" y2="169.052" gradientUnits="userSpaceOnUse" spreadMethod="pad" id="fill0"><stop offset="0" stop-color="#FF9F00"/><stop offset="0.05089" stop-color="#FE9900"/><stop offset="0.466323" stop-color="#FD7204"/><stop offset="0.797112" stop-color="#FD5907"/><stop offset="1" stop-color="#FD5108"/></linearGradient></defs><g transform="translate(-399 -139)"><path d="M476.58 176.605 460.56 176.605 460.56 160.915C460.62 156.715 459.63 153.595 457.62 151.645 455.52 149.635 453.15 149.725 452.97 149.695L439.29 149.695 439.29 169.225 426 188.425 406.56 188.425 406.56 224.245 474.87 224.305 476.61 221.305 428.31 221.275 428.31 190.405 442.29 170.155 442.29 152.695 453.03 152.695C453.09 152.725 454.41 152.695 455.58 153.865 456.93 155.185 457.59 157.615 457.56 160.885L457.56 179.605 476.37 179.575C476.67 179.635 484.02 180.805 484.44 188.095L484.11 202.255 475.71 216.805 479.19 216.805 487.11 203.065 487.44 188.035C486.99 180.145 480.27 177.115 476.58 176.605ZM425.31 221.245 409.56 221.245 409.56 191.425 425.31 191.425 425.31 221.245Z" fill="url(#fill0)"/></g></svg>