<svg width="72" height="72" viewBox="0 0 72 72" xmlns="http://www.w3.org/2000/svg" xmlns:xlink="http://www.w3.org/1999/xlink" id="Gradient" overflow="hidden"><defs><linearGradient x1="8.97968" y1="62.9797" x2="61.814" y2="10.1453" gradientUnits="userSpaceOnUse" id="linear-gradient"><stop offset="0" stop-color="#FF9F00"/><stop offset="0.05089" stop-color="#FE9900"/><stop offset="0.466323" stop-color="#FD7204"/><stop offset="0.797112" stop-color="#FD5907"/><stop offset="1" stop-color="#FD5108"/></linearGradient></defs><path d="M47.2034 31.5 4.5 31.5 4.5 29.25 48.5024 29.25 47.2034 31.5ZM31.7082 42.5391 4.5 42.5391 4.5 44.7891 30.4092 44.7891 31.7082 42.5391ZM13.7082 56.25 4.5 56.25 4.5 58.5 12.4092 58.5 13.7082 56.25ZM22.7082 15.75 4.5 15.75 4.5 18 21.4092 18 22.7082 15.75ZM58.4187 63 60.6687 63 60.6687 40.5 58.4187 40.5 58.4187 63ZM60.6687 9 58.4187 9 58.4187 20.25 60.6687 20.25 60.6687 9ZM42.8423 16.875 38.2961 24.75 29.2039 24.75 24.6577 16.875 29.2039 9 38.2961 9 42.8423 16.875ZM36.9976 22.5 40.2451 16.875 36.9976 11.25 30.5024 11.25 27.2549 16.875 30.5024 22.5 36.9976 22.5ZM54.9976 38.25 50.4514 30.375 54.9977 22.5 64.0909 22.5 68.6371 30.375 64.0909 38.25 54.9976 38.25ZM56.2961 36 62.7924 36 66.0399 30.375 62.7924 24.75 56.2961 24.75 53.0486 30.375 56.2961 36ZM51.8423 43.6641 47.2961 51.5391 38.2039 51.5391 33.6577 43.6641 38.2039 35.7891 47.2961 35.7891 51.8423 43.6641ZM45.9976 49.2891 49.2451 43.6641 45.9976 38.0391 39.5024 38.0391 36.2549 43.6641 39.5024 49.2891 45.9976 49.2891ZM33.8423 57.375 29.2961 65.25 20.2039 65.25 15.6577 57.375 20.2039 49.5 29.2961 49.5 33.8423 57.375ZM27.9976 63 31.2451 57.375 27.9976 51.75 21.5024 51.75 18.2549 57.375 21.5024 63 27.9976 63Z" fill="url(#linear-gradient)"/></svg>