<svg width="72" height="72" viewBox="0 0 72 72" xmlns="http://www.w3.org/2000/svg" xmlns:xlink="http://www.w3.org/1999/xlink" id="Gradient" overflow="hidden"><defs><linearGradient x1="8.33066" y1="62.3644" x2="61.8019" y2="8.89316" gradientUnits="userSpaceOnUse" id="linear-gradient"><stop offset="0" stop-color="#FF9F00"/><stop offset="0.05089" stop-color="#FE9900"/><stop offset="0.466323" stop-color="#FD7204"/><stop offset="0.797112" stop-color="#FD5907"/><stop offset="1" stop-color="#FD5108"/></linearGradient></defs><path d="M48.3188 46.7325 48.3188 58.95 42.9413 58.95 35.8537 46.8901 20.8688 46.8901 13.7138 58.95 9.41624 58.95 9.41624 48.9375 7.16624 48.9375 7.16624 61.2 19.9687 61.2 19.9687 58.95 16.3463 58.95 22.1513 49.1401 34.5714 49.1401 40.3314 58.95 36.6188 58.95 36.6188 61.2 50.5688 61.2 50.5688 46.7325 48.3188 46.7325ZM62.8988 10.8 48.1163 36.27 40.1063 22.41 37.4963 22.41 46.3613 37.71 49.8939 37.6875 64.8338 11.925 62.8988 10.8ZM7.16624 22.4551 7.16624 34.9426 9.41625 34.9426 9.41625 24.7051 22.6463 24.7051 22.6463 22.4551 7.16624 22.4551ZM28.3613 27.1125C23.4113 27.1125 19.3839 31.1175 19.3839 36.0676 19.3839 41.0176 23.4113 45.0225 28.3613 45.0225 33.3114 45.0225 37.3163 41.0176 37.3163 36.0676 37.3163 31.1175 33.3114 27.1125 28.3613 27.1125ZM28.3613 42.7725C24.6488 42.7725 21.6339 39.78 21.6339 36.0676 21.6339 32.355 24.6488 29.3625 28.3613 29.3625 32.0738 29.3625 35.0663 32.355 35.0663 36.0676 35.0663 39.78 32.0738 42.7725 28.3613 42.7725Z" fill="url(#linear-gradient)"/></svg>