<svg viewBox="0 0 72 72" xmlns="http://www.w3.org/2000/svg" xmlns:xlink="http://www.w3.org/1999/xlink" id="Gradient" overflow="hidden"><defs><linearGradient x1="3.92569" y1="64.0769" x2="57.0454" y2="10.9572" gradientUnits="userSpaceOnUse" id="Gradient-2"><stop offset="0" stop-color="#FF9F00"/><stop offset="0.05089" stop-color="#FE9900"/><stop offset="0.466323" stop-color="#FD7204"/><stop offset="0.797112" stop-color="#FD5907"/><stop offset="1" stop-color="#FD5108"/></linearGradient></defs><path d="M6.25492 8.27573 18.0375 8.27573 18.0375 11.2917 38.0978 11.2917 38.0978 8.27573 49.853 8.27573 49.853 25.2777 52.1079 25.2777 52.1079 6.01964 38.0978 6.01964 38.0978 2 18.0375 2 18.0375 6.01964 4 6.01964 4 64.1512 21.5969 64.1512 22.905 61.8951 6.25492 61.8951 6.25492 8.27573ZM20.2924 6.01964 20.2924 4.25609 35.8429 4.25609 35.8429 9.0356 20.2924 9.0356 20.2924 6.01964ZM20.4803 18.9628 42.6887 18.9628 42.0348 20.0906 41.3806 21.2189 20.4803 21.2189 20.4803 18.9628ZM17.7585 19.0069 11.9529 23.4877 9.70092 20.8243 11.4215 19.3672 12.2817 20.3836 16.3805 17.2208 17.7585 19.0069ZM17.7585 30.3784 11.9529 34.8592 9.70092 32.1958 11.4215 30.7387 12.2817 31.7551 16.3805 28.5923 17.7585 30.3784ZM12.2817 43.1276 16.3805 39.9648 17.7585 41.7509 11.9529 46.2317 9.69994 43.5673 11.4224 42.1102 12.2817 43.1276ZM55.9855 28.3573 31.9555 28.3573 19.941 49.1791 31.9555 70 55.9855 70 68 49.1791 55.9855 28.3573ZM54.6838 67.7439 33.2572 67.7439 22.5444 49.1791 33.2572 30.6134 54.6838 30.6134 65.3967 49.1791 54.6838 67.7439ZM33.6751 58.7712 35.93 54.8837 35.93 65.4888 33.6751 65.4888 33.6751 58.7712ZM45.2675 53.6453 45.2678 53.6453 45.2678 65.4888 43.0129 65.4888 43.0129 57.5329 45.2675 53.6453ZM40.3925 50.8134 40.4575 50.8134 40.4575 65.4888 38.2026 65.4888 38.2026 54.5889 40.3925 50.8134ZM49.6678 50.8134 49.7013 50.8134 49.7013 65.4888 47.4464 65.4888 47.4464 54.6433 49.6678 50.8134ZM51.644 49.9426 53.8989 46.055 53.8989 65.4888 51.644 65.4888 51.644 49.9426ZM55.9082 38.3472 52.452 43.144 51.7943 41.2212 40.6483 47.0494 40.6483 43.7622 32.7365 47.6388 31.7441 45.6119 42.9032 40.145 42.9032 43.3245 51.0556 39.0614 50.2455 36.6933 55.9082 38.3472Z" fill="url(#Gradient-2)"/></svg>