<svg width="72" height="72" viewBox="0 0 72 72" xmlns="http://www.w3.org/2000/svg" xmlns:xlink="http://www.w3.org/1999/xlink" id="Gradient" overflow="hidden"><defs><linearGradient x1="4.17937" y1="67.1794" x2="67.1794" y2="4.17937" gradientUnits="userSpaceOnUse" id="linear-gradient"><stop offset="0" stop-color="#FF9F00"/><stop offset="0.05089" stop-color="#FE9900"/><stop offset="0.466323" stop-color="#FD7204"/><stop offset="0.797112" stop-color="#FD5907"/><stop offset="1" stop-color="#FD5108"/></linearGradient></defs><path d="M20.25 9 20.25 11.25 22.5 11.25 22.5 9 20.25 9ZM15.75 9 15.75 11.25 18 11.25 18 9 15.75 9ZM11.2275 9 11.2275 11.25 13.4775 11.25 13.4775 9 11.2275 9ZM67.5 61.875 67.5 4.5 4.5 4.5 4.5 67.5 66.2175 67.5 67.5 65.25 6.75 65.25 6.75 6.75 65.25 6.75 65.25 61.875 67.5 61.875ZM33.75 9.1799 33.75 31.5 36 31.5 36 9.1799 33.75 9.1799ZM24.75 17.145 24.75 31.5 27 31.5 27 17.145 24.75 17.145ZM29.25 21.8925 29.25 31.5 31.5 31.5 31.5 21.8925 29.25 21.8925ZM20.25 19.53 20.25 31.5 22.5 31.5 22.5 19.53 20.25 19.53ZM11.25 25.7849 11.25 31.5 13.5 31.5 13.5 25.7849 11.25 25.7849ZM15.75 19.53 15.75 31.5 18 31.5 18 19.53 15.75 19.53ZM9 34.875 9 37.125 63 37.125 63 34.875 9 34.875ZM60.75 42.75 60.75 40.5 26.9324 40.5 25.6275 42.75 16.4475 42.75 11.25 51.75 16.4475 60.7725 26.8425 60.7725 32.04 51.75 30.7349 49.5 25.5374 58.5225 17.73 58.5225 13.8376 51.75 17.73 45 25.1325 45 25.74 45.3599 27.4949 48.375 28.7775 46.125 27.54 43.9424 28.215 42.75 60.75 42.75ZM36.0225 49.5 36.0225 60.7725 60.7275 60.7725 60.7275 49.5 36.0225 49.5ZM58.4775 58.5225 38.2725 58.5225 38.2725 51.75 58.4775 51.75 58.4775 58.5225ZM56.565 21.4875 55.2375 23.5574 58.8825 29.25 47.5876 29.25 54.5625 18.3599 53.2349 16.2675 43.47 31.5 62.9775 31.5 56.565 21.4875Z" fill="url(#linear-gradient)"/></svg>