<svg width="72" height="72" viewBox="0 0 72 72" xmlns="http://www.w3.org/2000/svg" xmlns:xlink="http://www.w3.org/1999/xlink" id="Gradient" overflow="hidden"><defs><linearGradient x1="8.11124" y1="63.2587" x2="63.2249" y2="8.14502" gradientUnits="userSpaceOnUse" id="linear-gradient"><stop offset="0" stop-color="#FF9F00"/><stop offset="0.05089" stop-color="#FE9900"/><stop offset="0.466323" stop-color="#FD7204"/><stop offset="0.797112" stop-color="#FD5907"/><stop offset="1" stop-color="#FD5108"/></linearGradient></defs><path d="M27.2812 48.4312 27.2812 50.6812 38.8687 50.6812 38.8687 48.4312 27.2812 48.4312ZM27.2812 41.2988 27.2812 43.5488 38.8687 43.5488 38.8687 41.2988 27.2812 41.2988ZM41.9288 12.7012 41.9288 14.9512 53.5838 14.9512 53.5838 12.7012 41.9288 12.7012ZM41.9288 19.8787 41.9288 22.1287 53.5838 22.1287 53.5838 19.8787 41.9288 19.8787ZM41.9288 27.0562 41.9288 29.3062 53.5838 29.3062 53.5838 27.0562 41.9288 27.0562ZM27.2812 34.2337 27.2812 36.4837 53.5838 36.4837 53.5838 34.2337 27.2812 34.2337ZM41.4112 41.2312 41.4112 50.5688 53.5162 50.5688 53.5162 41.2312 41.4112 41.2312ZM51.2662 48.3188 43.6612 48.3188 43.6612 43.4812 51.2662 43.4812 51.2662 48.3188ZM27.2362 12.8137 27.2362 29.1712 39.7462 29.1712 39.7462 12.8137 27.2362 12.8137ZM37.4962 26.9212 29.4862 26.9212 29.4862 15.0637 37.4962 15.0637 37.4962 26.9212ZM21.1612 54.6863 21.1837 8.96629 59.5462 8.96629 59.5462 51.3113 61.7962 51.3113 61.7962 6.71629 18.9337 6.71629 18.9337 15.0637 10.1586 15.0637 10.1363 65.2837 51.8287 65.2837 53.1337 63.0337 12.3863 63.0337 12.4086 17.3137 18.9337 17.3137 18.9112 56.9363 50.7713 56.9363 50.7713 59.6587 53.0213 59.6587 53.0213 56.9363 60.5812 56.9363 61.8637 54.6863 21.1612 54.6863ZM27.2812 48.4312 27.2812 50.6812 38.8687 50.6812 38.8687 48.4312 27.2812 48.4312ZM27.2812 41.2988 27.2812 43.5488 38.8687 43.5488 38.8687 41.2988 27.2812 41.2988ZM27.2812 48.4312 27.2812 50.6812 38.8687 50.6812 38.8687 48.4312 27.2812 48.4312ZM27.2812 41.2988 27.2812 43.5488 38.8687 43.5488 38.8687 41.2988 27.2812 41.2988Z" fill="url(#linear-gradient)"/></svg>