<svg viewBox="0 0 72 72" xmlns="http://www.w3.org/2000/svg" xmlns:xlink="http://www.w3.org/1999/xlink" id="Gradient" overflow="hidden"><defs><linearGradient x1="9.79606" y1="67.324" x2="61.1512" y2="15.9688" gradientUnits="userSpaceOnUse" id="Gradient-2"><stop offset="0" stop-color="#FF9F00"/><stop offset="0.05089" stop-color="#FE9900"/><stop offset="0.466323" stop-color="#FD7204"/><stop offset="0.797112" stop-color="#FD5907"/><stop offset="1" stop-color="#FD5108"/></linearGradient></defs><path d="M44.4605 36.0281C44.1953 35.7454 44.0671 35.3608 44.0754 34.8722L42.2658 34.8722C42.3513 35.8824 42.6636 36.6478 43.2026 37.1703 43.7417 37.6919 44.4906 37.9872 45.4488 38.0552L45.4488 39.147 46.206 39.147 46.206 38.0552C46.848 38.0125 47.374 37.8842 47.7849 37.6706 48.1957 37.4569 48.5231 37.2131 48.7669 36.9392 49.0107 36.6652 49.1797 36.3855 49.2739 36.098 49.3676 35.8115 49.4147 35.5744 49.4147 35.386 49.4147 35.1723 49.3997 34.9285 49.37 34.6546 49.3399 34.3807 49.2438 34.1068 49.0811 33.8329 48.9184 33.559 48.6658 33.2957 48.3239 33.0432 47.9815 32.7916 47.4939 32.5799 46.8606 32.4079 46.7407 32.3739 46.6275 32.3438 46.5207 32.3186 46.4133 32.2924 46.3089 32.2671 46.206 32.2419L46.206 29.9699C46.4969 29.9699 46.7451 30.0894 46.9505 30.3293 47.1559 30.5683 47.2628 30.8597 47.2715 31.2016L49.0942 31.2016C49.0684 30.7567 48.9742 30.3721 48.8115 30.0467 48.6488 29.7213 48.4395 29.4503 48.1826 29.2317 47.9262 29.0132 47.6285 28.8422 47.2904 28.7179 46.9524 28.5945 46.5911 28.511 46.206 28.4683L46.206 27.4795 45.4488 27.4795 45.4488 28.4683C45.0637 28.4935 44.6917 28.5683 44.3323 28.6926 43.9729 28.817 43.6563 28.9918 43.3823 29.2191 43.1084 29.4454 42.8884 29.7261 42.7214 30.0593 42.5548 30.3934 42.4712 30.7781 42.4712 31.2142 42.4712 31.6425 42.5436 32 42.6893 32.2865 42.8345 32.5731 43.0293 32.813 43.2736 33.0053 43.5174 33.1976 43.7932 33.3521 44.1011 33.4667 44.409 33.5823 44.7213 33.6833 45.038 33.7688 45.1234 33.7863 45.2026 33.8057 45.2754 33.8261 45.3483 33.8484 45.4061 33.8669 45.4488 33.8844L45.4488 36.5671C45.0554 36.4894 44.7257 36.3097 44.4605 36.0281ZM46.206 34.1029C46.7111 34.2399 47.068 34.3914 47.2778 34.5584 47.4876 34.7245 47.5925 34.9751 47.5925 35.3093 47.5925 35.5142 47.5493 35.692 47.4638 35.8416 47.3784 35.9911 47.2691 36.1174 47.1365 36.2204 47.0039 36.3233 46.8543 36.402 46.6873 36.4574 46.5207 36.5137 46.3599 36.5497 46.206 36.5671L46.206 34.1029ZM44.5635 31.6892C44.3838 31.5357 44.2939 31.3172 44.2939 31.0345 44.2939 30.8548 44.326 30.6994 44.3901 30.5663 44.4542 30.4342 44.5416 30.3225 44.6533 30.2332 44.764 30.1428 44.8884 30.0768 45.0253 30.034 45.1623 29.9913 45.3031 29.9699 45.4488 29.9699L45.4488 32.0622C45.038 31.9679 44.7432 31.8436 44.5635 31.6892ZM25.5042 47.5644 24.1993 47.5644 23.5009 41.9026 23.5009 38.3738 26.2211 38.3738 26.2211 41.9026 25.5042 47.5644ZM23.4275 48.6669 26.3128 48.6669 26.3128 51.4973 23.4275 51.4973 23.4275 48.6669ZM24.4018 21.1319 46.6552 59.6758 24.4023 59.6855 8.12536 59.6784 9.4171 57.4413 24.4023 57.4476 42.7816 57.4398 24.4018 25.6038 7.51003 54.8616 7.47361 54.8406 4.68106 59.6769 2.14786 59.6758 24.4018 21.1319ZM40.6486 43.1498C42.2595 43.9657 43.9991 44.3795 45.8189 44.3795 52.1412 44.3795 57.2848 39.2354 57.2848 32.913 57.2848 26.5907 52.1412 21.4476 45.8189 21.4476 39.6995 21.4476 34.6725 26.2274 34.3681 32.3316L32.6099 29.2863C34.2015 23.4507 39.5216 19.2096 45.8189 19.2096 53.3753 19.2096 59.5228 25.3571 59.5228 32.913 59.5228 40.4699 53.3753 46.6174 45.8189 46.6174 44.6314 46.6174 43.4757 46.4562 42.3539 46.1633L40.6324 43.1816 40.6486 43.1498ZM30.6118 15.8894 27.5712 15.4302 27.5739 15.4125 30.1004 13.549 34.5948 14.2277 33.9364 18.5862 31.3998 20.4572 31.3909 20.4558 31.7805 17.8768C30.4777 19.0901 29.3334 20.47 28.3841 21.967L27.1288 19.7929C28.1377 18.3695 29.3082 17.0523 30.6118 15.8894ZM62.0569 45.7403 63.816 47.1234C59.8766 52.1318 54.1596 55.2068 47.8994 55.7684L46.6526 53.6088C52.7066 53.3691 58.2843 50.5355 62.0569 45.7403ZM70.1479 39.4707 68.9017 42.3521 64.6761 44.0259 63.0525 39.928 64.304 37.0345 64.3119 37.0314 65.3555 39.6662C66.0879 37.5312 66.4658 35.2959 66.4658 32.9859 66.4658 21.601 57.2037 12.3385 45.8189 12.3385 43.0225 12.3385 40.3096 12.8883 37.756 13.9713L36.8818 11.9121C39.7132 10.7096 42.7204 10.1006 45.8189 10.1006 58.4378 10.1006 68.7037 20.3665 68.7037 32.9859 68.7037 35.5957 68.2699 38.1206 67.4259 40.5298L70.1412 39.4539 70.1479 39.4707Z" fill="url(#Gradient-2)"/></svg>