<svg width="96" height="96" xmlns="http://www.w3.org/2000/svg" xmlns:xlink="http://www.w3.org/1999/xlink" xml:space="preserve" overflow="hidden"><defs><linearGradient x1="588.125" y1="227.125" x2="652.642" y2="162.608" gradientUnits="userSpaceOnUse" spreadMethod="pad" id="fill0"><stop offset="0" stop-color="#FF9F00"/><stop offset="0.05089" stop-color="#FE9900"/><stop offset="0.466323" stop-color="#FD7204"/><stop offset="0.797112" stop-color="#FD5907"/><stop offset="1" stop-color="#FD5108"/></linearGradient></defs><g transform="translate(-578 -139)"><path d="M669.5 223 669.5 226 587 226 587 148 590 148 590 223 669.5 223ZM618.649 199.684C622.538 202.088 627.102 203.5 632 203.5 646.061 203.5 657.5 192.06 657.5 178 657.5 164.957 647.65 154.184 635 152.692L635 155.724C645.99 157.198 654.5 166.612 654.5 178 654.5 190.407 644.407 200.5 632 200.5 619.593 200.5 609.5 190.407 609.5 178 609.5 166.732 617.833 157.4 628.655 155.777L630.911 152.555C617.357 153.131 606.5 164.308 606.5 178 606.5 186.087 610.296 193.292 616.187 197.967L602.86 217 606.525 217 618.649 199.684ZM614 181 614 185.488C614.753 187.292 615.768 188.96 617 190.442L617 181 614 181ZM620 169 620 193.338C620.937 194.073 621.937 194.726 623 195.282L623 169 620 169ZM626 160 626 196.546C626.968 196.86 627.973 197.085 629 197.245L629 160 626 160ZM632 160 632 197.5C633.023 197.5 634.019 197.397 635 197.245L635 160 632 160ZM638 177.918 638 196.546C639.042 196.208 640.043 195.782 641 195.282L641 177.918 638 177.918ZM644 181 644 193.338C645.097 192.478 646.109 191.514 647 190.442L647 181 644 181Z" fill="url(#fill0)"/></g></svg>